<?xml version="1.0" encoding="utf-8"?>
<!-- Generator: Adobe Illustrator 18.0.0, SVG Export Plug-In . SVG Version: 6.00 Build 0)  -->
<!DOCTYPE svg PUBLIC "-//W3C//DTD SVG 1.1//EN" "http://www.w3.org/Graphics/SVG/1.1/DTD/svg11.dtd">
<svg version="1.1" id="Layer_1" xmlns="http://www.w3.org/2000/svg" xmlns:xlink="http://www.w3.org/1999/xlink" x="0px" y="0px"
	 viewBox="0 317.1 612 155" enable-background="new 0 317.1 612 155" xml:space="preserve">
<g>
	<rect y="457.6" fill="#E50000" width="612" height="14.5"/>
</g>
<path fill="#E50000" d="M79,361.3l-8.9,73.1H45.9c-1.3-8.9-2.9-20.7-4.6-35.3c-0.6,6.4-1.4,12.9-2.5,19.4l-2.4,15.9H12.2l-9.4-73.1
	h19.2c0.1,1.9,1.8,15.9,4.9,41.9c0.2-2.7,1.9-16.6,5-41.9h18.4l4.5,41.9c0.7-12.2,2.4-26.2,5.1-41.9H79z M315.3,389.4
	c0-7.1-0.8-12.6-2.4-16.5c-1.6-3.9-4.5-7-8.5-9.4c-4.1-2.4-9.2-3.6-15.4-3.6c-5.1,0-9.6,1-13.5,2.9c-3.9,2-6.8,4.8-8.5,8.5
	c-1.7,3.7-2.6,8.7-2.6,15.1v21.3c0,5.4,0.4,9.6,1.2,12.4c0.8,2.8,2.2,5.5,4.2,7.8c2,2.4,4.8,4.2,8.4,5.6c3.6,1.4,7.7,2,12.4,2
	c4.8,0,8.9-0.7,12.1-2.1c3.2-1.4,5.9-3.4,8-6.2c2.1-2.8,3.4-5.3,4-7.8c0.6-2.4,0.9-5.9,0.9-10.4v-5.4h-21.1v9.6
	c0,3.6-0.3,6.1-0.9,7.4c-0.6,1.3-1.7,1.9-3.4,1.9c-1.4,0-2.3-0.5-2.8-1.4c-0.5-1-0.7-3.1-0.7-6.4v-15.8h28.8L315.3,389.4
	L315.3,389.4z M286.5,387.2v-5.3c0-4.1,0.2-6.6,0.6-7.6c0.4-0.9,1.3-1.4,2.9-1.4c1.2,0,2.1,0.6,2.5,1.7c0.4,1.1,0.6,3.5,0.6,7.3v5.3
	H286.5z M224.2,361.3v73.1h22.2v-28.9c0-7.1,0.2-11.6,0.7-13.6c0.4-2,1.6-3.5,3.5-4.6c1.9-1.1,4.9-1.7,9-1.7V360
	c-6.1,0.4-10.8,4-14,10.9l0.9-9.6L224.2,361.3L224.2,361.3z M133.8,389.4c0-7.1-0.8-12.6-2.5-16.5c-1.6-3.9-4.5-7-8.5-9.4
	c-4.1-2.4-9.2-3.6-15.4-3.6c-5.1,0-9.6,1-13.5,2.9c-3.9,2-6.8,4.8-8.5,8.5c-1.7,3.7-2.6,8.7-2.6,15.1v21.3c0,5.4,0.4,9.6,1.2,12.4
	c0.8,2.8,2.2,5.5,4.2,7.8c2,2.4,4.8,4.2,8.4,5.6c3.6,1.4,7.7,2,12.4,2c4.8,0,8.9-0.7,12.1-2.1c3.2-1.4,5.9-3.4,8-6.2
	c2.1-2.8,3.4-5.3,4-7.8c0.6-2.4,0.9-5.9,0.9-10.4v-5.4h-21.1v9.6c0,3.6-0.3,6.1-0.9,7.4c-0.6,1.3-1.7,1.9-3.4,1.9
	c-1.4,0-2.3-0.5-2.8-1.4c-0.5-1-0.7-3.1-0.7-6.4v-15.8h28.8L133.8,389.4L133.8,389.4z M105,387.2v-5.3c0-4.1,0.2-6.6,0.6-7.6
	s1.3-1.4,2.9-1.4c1.2,0,2.1,0.6,2.5,1.7c0.4,1.1,0.6,3.5,0.6,7.3v5.3H105z M321.5,361.3v83.5h22.3V428c1.9,2.5,4.1,4.4,6.4,5.7
	c2.3,1.3,4.9,1.9,7.7,1.9c3.4,0,6.4-0.8,8.8-2.5c2.4-1.7,4.1-3.9,4.8-6.7c0.8-2.8,1.2-7.5,1.2-14.2v-30.8c0-5.8-0.3-9.9-0.9-12.3
	c-0.6-2.4-2.2-4.6-4.7-6.4c-2.5-1.9-5.5-2.8-8.9-2.8c-2.8,0-5.4,0.6-7.8,1.9c-2.4,1.3-4.6,3.2-6.6,5.8l0.4-6.5L321.5,361.3
	L321.5,361.3z M350.4,413.9c0,3.9-0.2,6.3-0.5,7.4c-0.3,1-1.2,1.5-2.7,1.5c-1.5,0-2.4-0.6-2.9-1.7c-0.4-1.1-0.7-3.9-0.7-8.3v-30.3
	c0-4.2,0.2-6.9,0.6-8c0.4-1.1,1.4-1.7,2.8-1.7c1.5,0,2.4,0.5,2.8,1.4c0.3,1,0.5,3.7,0.5,8.2L350.4,413.9L350.4,413.9z M408.7,361.3
	v49.2c0,6-0.2,9.5-0.5,10.6c-0.3,1.1-1.3,1.7-2.9,1.7c-1.5,0-2.5-0.5-2.8-1.6c-0.4-1.1-0.5-4.4-0.5-10.1v-49.7h-22.2v49.3
	c0,6.3,0.1,10.5,0.4,12.6c0.3,2.1,0.9,4.1,2,6.1c1,1.9,2.7,3.5,4.9,4.7c2.2,1.2,5,1.8,8.3,1.8c2.9,0,5.5-0.6,7.8-1.8
	c2.3-1.2,4.2-3.1,5.7-5.5l-0.4,6.1H431v-73.1H408.7z M438.9,345.2v89.2h20.8l1.4-5.5c1.9,2.3,3.9,4,6.2,5.1c2.3,1.1,4.7,1.7,7.3,1.7
	c3.6,0,6.8-1,9.4-2.9c2.6-1.9,4.3-4.2,5-6.8c0.7-2.6,1.1-6.6,1.1-12v-32.9c0-5.4-0.1-8.9-0.4-10.6c-0.2-1.7-0.9-3.3-2.1-5.1
	c-1.2-1.7-2.9-3.1-5.1-4c-2.2-1-4.9-1.4-7.9-1.4c-2.6,0-5.1,0.5-7.3,1.6c-2.3,1-4.3,2.6-6.1,4.8v-21.1H438.9z M468,412.9
	c0,4.3-0.2,7.1-0.6,8.2c-0.4,1.1-1.3,1.7-2.7,1.7c-1.4,0-2.3-0.5-2.7-1.7c-0.5-1.1-0.7-3.6-0.7-7.5v-31.5c0-4.1,0.2-6.6,0.6-7.6
	c0.4-1,1.3-1.5,2.6-1.5c1.4,0,2.3,0.6,2.8,1.7c0.5,1.2,0.7,3.6,0.7,7.4V412.9z M519.6,345.2h-22.9v89.2h22.9L519.6,345.2
	L519.6,345.2z M550.5,345.2h-22.9v11.6h22.9V345.2z M550.5,361.3h-22.9v73.1h22.9V361.3z M607.7,388.9c0-6.9-0.7-12.2-2-15.9
	c-1.4-3.7-4.1-6.8-8.2-9.3c-4.1-2.5-9.1-3.7-14.9-3.7c-5.8,0-10.8,1.2-14.9,3.7c-4.1,2.5-6.7,5.3-8,8.5c-1.2,3.2-1.9,7.8-1.9,14V407
	c0,7.1,0.8,12.6,2.3,16.5c1.5,3.9,4.1,6.9,7.8,9c3.7,2.1,8.6,3.2,14.9,3.2c4.9,0,9-0.8,12.4-2.3c3.3-1.6,6-3.9,8.1-6.9
	c2.1-3.1,3.3-6.1,3.7-9c0.4-2.9,0.6-7.3,0.6-13.1h-19.8v8.7c0,3.8-0.3,6.4-0.8,7.7c-0.5,1.4-1.6,2-3.1,2c-1.3,0-2.3-0.7-2.9-2
	c-0.7-1.3-1-3.3-1-5.9v-34.5c0-3.2,0.2-5.3,0.7-6.2c0.4-0.9,1.3-1.4,2.6-1.4c1.3,0,2.2,0.5,2.6,1.6c0.5,1,0.7,3,0.7,6v8.4
	L607.7,388.9 M190.6,370.5c0.2,1.7,0.4,5.2,0.4,10.6V414c0,5.4-0.4,9.4-1.1,12c-0.7,2.6-2.4,4.9-5,6.8c-2.6,1.9-5.8,2.9-9.4,2.9
	c-2.6,0-5-0.6-7.3-1.7c-2.3-1.1-4.3-2.8-6.2-5.1l-1.4,5.5h-20.8v-89.2H162v21.1c1.8-2.1,3.9-3.7,6.1-4.8c2.3-1,4.7-1.6,7.4-1.6
	c3,0,5.7,0.5,7.9,1.4c2.2,1,3.9,2.3,5.1,4C189.7,367.2,190.4,368.9,190.6,370.5 M173.9,399.6l9.1-7.6l-11.9-0.8l-4.4-11.1l-4.4,11.1
	l-11.9,0.8l9.1,7.6l-3,11.7l10.2-6.5l10.1,6.3L173.9,399.6z"/>
<rect y="317.1" fill="#E50000" width="612" height="14.5"/>
</svg>
